<?xml version="1.0" encoding="UTF-8"?>
<svg id="Layer_2" data-name="Layer 2" xmlns="http://www.w3.org/2000/svg" viewBox="0 0 219 86">
  <defs>
    <style>
      .cls-1 {
        fill: none;
        stroke-width: 3px;
      }

      .cls-1, .cls-2, .cls-3 {
        stroke: #000;
        stroke-miterlimit: 10;
      }

      .cls-2 {
        fill: #fff;
      }

      .cls-3 {
        fill: #a0a0a0;
      }

      .cls-4 {
        font-family: SinhalaSangamMN, 'Sinhala Sangam MN';
        font-size: 21px;
      }
    </style>
  </defs>
  <g id="Layer_1-2" data-name="Layer 1">
    <rect class="cls-3" x=".5" y=".5" width="218" height="85" rx="13.49" ry="13.49"/>
    <rect class="cls-2" x="11.5" y="3.5" width="190" height="70" rx="12.04" ry="12.04"/>
    <line class="cls-3" x1="199" y1="69" x2="215" y2="81"/>
    <line class="cls-3" x1="16" y1="71" x2="5" y2="82"/>
    <polygon points="40 36 21.46 41.81 40 46.77 40 36"/>
    <polyline class="cls-1" points="61.5 30.5 61.5 41.38 40 41.38"/>
    <g>
      <path d="m141.2,32.63l-.85,2.1-.38-.15.38,6.2c.02.55-.04,1.21-.19,1.98-.15.64-.44,1.6-.89,2.89-1.69,1.19-3.29,1.79-4.8,1.79-1.01,0-1.85-.34-2.5-1.01-.66-.68-.99-1.53-.99-2.55,0-.93.19-1.95.56-3.05.13-.41.41-1.11.85-2.1l-.09.48-.13.81c-.05.31-.07.67-.07,1.07,0,2.35.87,3.52,2.62,3.52,1.19,0,2.4-.52,3.62-1.57l-.02-.38-.33-6.41-.22-2.55-.12-.05c-.32-.15-.48-.35-.48-.6,0-.13.07-.3.21-.5l.2-.29.95-1.43c.05.41.18.68.38.8.11.08.33.19.65.32l1.64.69Z"/>
      <path d="m147.85,40.16v2.93h-4.25c-.81,0-1.21-.32-1.21-.96v-.56l-.02-.38v-7.91l2.35-2.48v8.25c0,.65.11,1.01.33,1.07.08.02.27.04.56.04h2.24Z"/>
      <path d="m161.35,39.03l-1.74,2.72c-.84-.2-1.62-.3-2.35-.3-.92,0-1.76.32-2.52.97l-.51.43c-.18.16-.53.24-1.03.24h-6.23v-2.93h7.98c-.55-.16-1.21-.48-1.97-.93-.96-.57-1.7-.86-2.2-.86-.17,0-.42.04-.74.13.32-.42.63-.79.93-1.08l.78-.79c.35-.36.71-.55,1.08-.55.34,0,.81.16,1.39.48l1.38.72c1.18.61,2.19,1.05,3.05,1.31.91.29,1.81.43,2.71.43Zm-4.28-5.29l-1.38,1.3-1.93-1.65,1.41-1.33,1.9,1.67Z"/>
      <path d="m166.68,40.16c-.21-.63-.5-1.13-.88-1.48-.33-.31-.83-.6-1.52-.86l1.08-2.29c.58.24,1.03.48,1.37.72,1.12.82,1.68,1.83,1.68,3.03,0,.62-.16,1.35-.49,2.17l-.64,1.64h-5.13l.69-2.93h3.84Z"/>
      <path d="m173.43,47.21l-.44,1.3-.23.02c-.41.04-.81.13-1.19.27-.65.25-1.22.66-1.7,1.23.07-.62.3-1.16.69-1.6-.56-.12-.85-.46-.85-1.03,0-.3.16-.69.48-1.17.32-.48.61-.81.89-.99.33-.21.73-.31,1.2-.31.58,0,.86.13.86.38,0,.01-.04.12-.12.33l-.1.21-.28.56c-.27-.14-.58-.2-.93-.2-.52,0-.93.17-1.24.51.49.46,1.15.7,1.97.7.26,0,.6-.06,1-.19Zm-.93-16.4l.53,3.36-.46.49v.21l.1,1.43c.05.76.07,1.43.07,2.02,0,1.26-.14,2.27-.41,3.02-.32.82-.9,1.66-1.75,2.5.05-.53.07-1.16.07-1.9s-.02-1.45-.07-2.22l-.4-6.07,2.33-2.84Z"/>
    </g>
    <text class="cls-4" transform="translate(71.63 44.87)"><tspan x="0" y="0">Enter</tspan></text>
  </g>
</svg>