<svg viewBox="0 0 798.36 585.03" xmlns="http://www.w3.org/2000/svg"><path d="m578 545.5h-507.82c-33.51 0-60.68-27.17-60.68-60.68v-387.64c0-33.51 27.17-60.68 60.68-60.68" fill="none" stroke="#041f3f" stroke-miterlimit="10" stroke-width="19"/><path d="m679.99 545.36c-1.38.09-2.77.14-4.17.14" fill="none" stroke="#041f3f" stroke-miterlimit="10" stroke-width="19"/><path d="m189 36.5h486.82c33.51 0 60.68 27.17 60.68 60.68v134.32l48.01 52.98c5.7 6.29 5.81 15.85.25 22.26l-48.27 55.76v122.32c0 32.11-24.94 58.4-56.51 60.54" fill="none" stroke="#041f3f" stroke-miterlimit="10" stroke-width="19"/><g fill="#041f3f"><path d="m161.21 0s-30.21 16-30.21 50c0 14 10 20 17 20 0 0 17-1 17-17s-13.23-16.5-13.23-16.5.23-11.5 16.23-22.5c-3-6-6.79-14-6.79-14z"/><path d="m118.24.17s-30.21 16-30.21 50c0 14 10 20 17 20 0 0 17-1 17-17s-13.23-16.5-13.23-16.5.23-11.5 16.23-22.5c-3-6-6.79-14-6.79-14z"/><path d="m637.11 585.03s30.21-16 30.21-50c0-14-10-20-17-20 0 0-17 1-17 17s13.23 16.5 13.23 16.5-.23 11.5-16.23 22.5c3 6 6.79 14 6.79 14z"/><path d="m594.46 584.98s30.21-16 30.21-50c0-14-10-20-17-20 0 0-17 1-17 17s13.23 16.5 13.23 16.5-.23 11.5-16.23 22.5c3 6 6.79 14 6.79 14z"/></g></svg>