<?xml version="1.0" encoding="UTF-8"?>
<svg id="Layer_2" data-name="Layer 2" xmlns="http://www.w3.org/2000/svg" viewBox="0 0 871.9 628.09">
  <defs>
    <style>
      .cls-1 {
        fill: #f8fafb;
      }

      .cls-2 {
        fill: #ebf0f5;
      }

      .cls-3 {
        fill: #e9eef2;
      }

      .cls-4 {
        fill: #f5f8fb;
      }

      .cls-5, .cls-6 {
        fill: #fff;
      }

      .cls-7 {
        fill: #fbfcfd;
      }

      .cls-8 {
        fill: #071d42;
      }

      .cls-6 {
        font-family: SinhalaSangamMN, 'Sinhala Sangam MN';
      }

      .cls-9 {
        font-size: 81.36px;
      }

      .cls-10 {
        font-size: 58.31px;
      }
    </style>
  </defs>
  <g id="Layer_1-2" data-name="Layer 1">
    <g>
      <path class="cls-5" d="m179.7,421.93c.63,0,1.52.92,2.67,2.76,1.71,2.73,3.14,5.81,4.29,9.24,1.01,3.24,1.52,6.19,1.52,8.86,0,2.1-.67,5.75-2,10.96-1.02,2.98-2.13,5.65-3.33,8-.64,1.08-1.21,1.94-1.71,2.57h.09c9.65,0,19.5,1.43,29.53,4.29,5.4,1.71,9.24,3.43,11.53,5.15,1.72,1.46,2.57,3.02,2.57,4.67v.38c0,2.22-1.81,6.45-5.43,12.67-1.14,1.84-2.7,3.84-4.67,6-4.51,3.24-9.08,5.91-13.72,8-14.93,6.99-34.04,10.48-57.35,10.48-19.88,0-36.36-3.14-49.44-9.43-2.1-1.08-4.35-2.54-6.76-4.38-2.29-1.97-3.91-3.65-4.86-5.05-1.65-2.09-2.6-4.06-2.86-5.91-.06-.38-.09-.73-.09-1.05v-.57c0-3.18.57-8.23,1.71-15.15.63-3.11,1.36-5.46,2.19-7.05.51-1.08,1.71-2.64,3.62-4.67,2.1-2.1,4.29-3.81,6.57-5.15,4.19-2.6,9.3-5.02,15.34-7.24,8.32-2.86,14.51-4.29,18.58-4.29,2.98,0,4.89.8,5.72,2.38.25.63.38,1.18.38,1.62v.57c0,1.46-.79,4.22-2.38,8.29-.44,1.91-.99,3.46-1.62,4.67-.51.89-1.05,1.46-1.62,1.71-1.59.64-3.02.95-4.29.95-3.24.32-6.03.89-8.38,1.72-4.26,1.4-8.26,2.95-12,4.67-2.41,1.08-4.67,2.42-6.76,4-2.54,1.91-4.22,3.84-5.05,5.81,1.84,2.35,3.59,4.1,5.24,5.24,3.05,2.09,5.87,3.68,8.48,4.76,2.92,1.21,5.59,2.09,8,2.67,2.54.76,6.64,1.59,12.29,2.48,5.72.83,10.92,1.24,15.62,1.24h3.62c20.7,0,39.06-2.83,55.06-8.48,2.86-1.27,4.35-1.97,4.48-2.09v-.29c-.38-.44-1.08-.89-2.1-1.33-2.35-1.21-6.54-2.38-12.57-3.53-4.32-.82-9.69-1.59-16.1-2.29-3.81-.32-9.56-.7-17.24-1.14-2.35-.44-4.07-1.18-5.15-2.19-.57-.57-.99-1.02-1.24-1.33.06-.25,3.33-6.06,9.81-17.43.19-.57.79-1.21,1.81-1.91,1.91-1.08,5.43-2.16,10.58-3.24,1.52-.32,3.3-.63,5.33-.95v-.09c-.44-1.59-1.27-3.62-2.48-6.1-1.21-2.29-2.41-4.32-3.62-6.1-.89-1.33-1.68-2.44-2.38-3.33v-.29c0-.32.38-.99,1.14-2l8.86-12.67c.25-.06.44-.1.57-.1Zm-45.82,105.18c.51-.44,1.18-.67,2-.67,1.27,0,2.92.54,4.95,1.62,2.98,1.52,4.86,3.05,5.62,4.57.25.51.38,1.08.38,1.71,0,1.72-.76,3.87-2.29,6.48-.64,1.27-1.4,2.44-2.29,3.53-.7.89-1.14,1.33-1.33,1.33-1.46-1.52-3.88-2.76-7.24-3.71-1.27-.32-2.19-.7-2.76-1.14-.64-.51-.95-1.46-.95-2.86,0-.89.44-2.79,1.33-5.72.95-2.92,1.81-4.64,2.57-5.15Zm17.15,0c.51-.44,1.17-.67,2-.67,1.27,0,2.92.54,4.95,1.62,2.98,1.52,4.86,3.05,5.62,4.57.19.51.29,1.08.29,1.71,0,1.72-.73,3.87-2.19,6.48-.64,1.27-1.4,2.44-2.29,3.53-.7.89-1.14,1.33-1.33,1.33-1.46-1.52-3.87-2.76-7.24-3.71-1.27-.32-2.19-.7-2.76-1.14-.64-.51-.95-1.46-.95-2.86,0-.89.44-2.79,1.33-5.72.95-2.92,1.81-4.64,2.57-5.15Zm46.3-7.43c.51-.45,1.18-.67,2-.67,1.27,0,2.92.54,4.95,1.62,2.98,1.52,4.86,3.05,5.62,4.57.19.51.29,1.08.29,1.72,0,1.71-.73,3.87-2.19,6.48-.64,1.27-1.4,2.44-2.29,3.53-.7.89-1.14,1.33-1.33,1.33-1.46-1.52-3.88-2.76-7.24-3.71-1.27-.32-2.19-.7-2.76-1.14-.64-.51-.95-1.46-.95-2.86,0-.89.44-2.79,1.33-5.72.95-2.92,1.81-4.64,2.57-5.14Z"/>
      <path class="cls-5" d="m224.57,458.89v-.1c-2.8-10.16-5.18-20.29-7.15-30.39-2.92-15.24-4.45-23.12-4.57-23.63v-.48c0-3.87,2.6-7.34,7.81-10.38,1.78-1.46,2.98-2.19,3.62-2.19.13,0,.22.03.29.1.82.38,1.81,3.49,2.95,9.33.51,2.29,2.05,10.67,4.62,25.15,2.57,14.48,5.87,27.37,9.91,38.68,4.03,11.31,7.51,18.61,10.43,21.91v18.39h-1.24c-3.05,0-6.1-1.14-9.15-3.43-1.97-1.46-4.19-4.96-6.67-10.48-4.32-9.27-7.91-19.97-10.77-32.11,0-.19-.03-.32-.09-.38Z"/>
      <path class="cls-5" d="m294.78,487.38c-.51.13-1.02.29-1.53.47-2.73,1.4-5.62,3.11-8.67,5.15-7.75,7.94-18.45,12.04-32.1,12.29v-18.2c12.39,1.21,23.34-2.67,32.87-11.62-8-2.98-16.48-8.54-25.44-16.67-2.79-1.72-4.11-3.65-3.95-5.81.16-2.16.97-5.1,2.43-8.81,1.46-3.72,2.67-5.57,3.62-5.57.38,0,.79.22,1.24.67l-.19-.1c0,.13.95,1.24,2.86,3.33.76.76,2.92,2.67,6.48,5.72,3.18,2.8,8.06,5.91,14.67,9.34,9.53,4.45,17.83,6.87,24.91,7.29,7.08.41,13.58.65,19.48.72v.19c.19.32.29.83.29,1.52,0,1.65-.7,4.8-2.1,9.43-1.52,3.81-2.67,6.03-3.43,6.67-2.1-.06-4.16-.09-6.19-.09-2.79,0-5.08.16-6.86.47,7.05,3.37,15.59,4.51,25.63,3.43v18.1c-17.15.19-29.95-3.53-38.39-11.15-2.41-2.35-4.16-4.45-5.24-6.29-.13-.19-.25-.35-.38-.47Zm-7.81,22.77c.51-.44,1.18-.67,2-.67,1.27,0,2.92.54,4.95,1.62,2.98,1.52,4.86,3.05,5.62,4.57.25.51.38,1.08.38,1.72,0,1.71-.76,3.87-2.29,6.48-.64,1.27-1.4,2.45-2.29,3.53-.7.89-1.14,1.33-1.33,1.33-1.46-1.52-3.87-2.76-7.24-3.71-1.27-.32-2.19-.7-2.76-1.14-.64-.51-.95-1.46-.95-2.86,0-.89.44-2.79,1.33-5.72.95-2.92,1.81-4.63,2.57-5.14Z"/>
      <path class="cls-5" d="m333.84,516.81c.51-.45,1.18-.67,2-.67,1.27,0,2.92.54,4.95,1.62,2.98,1.52,4.86,3.05,5.62,4.57.25.51.38,1.08.38,1.72,0,1.71-.76,3.87-2.29,6.48-.64,1.27-1.4,2.44-2.29,3.53-.7.89-1.14,1.33-1.33,1.33-1.46-1.52-3.87-2.76-7.24-3.71-1.27-.32-2.19-.7-2.76-1.14-.63-.51-.95-1.46-.95-2.86,0-.89.44-2.79,1.33-5.72.95-2.92,1.81-4.64,2.57-5.14Zm22.86-42.11c-.38,4.45-1.08,8.38-2.1,11.81-1.02,3.43-2.43,6.67-4.24,9.72-1.81,3.05-3.16,4.99-4.05,5.81-1.97,1.78-4.48,2.86-7.53,3.24v-18.29c1.21.19,2.16.03,2.86-.48,1.84-5.46.44-13.65-4.19-24.58.26-2.79,1.84-6,4.76-9.62,1.33-1.71,2.64-2.89,3.91-3.52,1.52-.63,2.83-.44,3.91.57l.09.19.67.76c1.27,1.71,2.67,5.1,4.19,10.14,1.52,5.05,2.09,9.8,1.72,14.24Zm-5.72,42.11c.51-.45,1.17-.67,2-.67,1.27,0,2.92.54,4.96,1.62,2.98,1.52,4.86,3.05,5.62,4.57.19.51.29,1.08.29,1.72,0,1.71-.73,3.87-2.19,6.48-.64,1.27-1.4,2.44-2.29,3.53-.7.89-1.14,1.33-1.33,1.33-1.46-1.52-3.87-2.76-7.24-3.71-1.27-.32-2.19-.7-2.76-1.14-.64-.51-.95-1.46-.95-2.86,0-.89.44-2.79,1.33-5.72.95-2.92,1.81-4.64,2.57-5.14Z"/>
      <path class="cls-5" d="m362.8,402.21c-.07-.38-.1-.76-.1-1.14,0-4.57,4.73-8.45,14.19-11.62.76.51,1.4,1.52,1.91,3.05v.19c6.1,56.65,12.64,91.84,19.63,105.55l.19.19v.19c0,2.22-5.46,4.7-16.39,7.43-.19.06-.38.09-.57.09-2.22,0-3.81-3.17-4.76-9.53-1.02-6.8-5.72-38.26-14.1-94.41Z"/>
      <path class="cls-5" d="m547.43,492.14c0-.13-7.05-.92-21.15-2.38-14.61-1.52-23.21-2.86-25.82-4-5.91-2.54-9.02-5.53-9.34-8.96v-.38c0-1.39.44-4.13,1.33-8.19,1.08-4.7,2-7.65,2.76-8.86,2.03-3.43,6.25-7.18,12.67-11.24,5.65-3.68,10.92-6.35,15.81-8,1.65-.57,3.75-1.08,6.29-1.52.95-.25,2.06-.38,3.34-.38.89,0,1.81.1,2.76.29,2.92.32,4.92.73,6,1.24,1.91,1.14,3.01,2,3.34,2.57.25.44.38.95.38,1.52,0,.76-.25,1.75-.76,2.95-.51,1.33-1.33,2.92-2.48,4.76-1.4,2.67-2.22,4.29-2.48,4.86-.63,1.21-1.4,1.81-2.28,1.81-.26,0-1.21-.32-2.86-.95-1.65-.76-3.53-1.14-5.62-1.14-3.11,0-6.76.8-10.95,2.38-5.91,2.16-10.83,4.95-14.77,8.38,0,.38.92.92,2.76,1.62,1.65.64,2.92,1.02,3.81,1.14,3.24.7,5.91,1.14,8,1.33,1.52.26,4.89.6,10.1,1.05,5.97.51,10.51.95,13.62,1.33,11.87,1.21,19.18,2.64,21.91,4.29,2.35,1.46,3.53,3.24,3.53,5.33,0,1.33-.73,3.43-2.19,6.29-2.29,4.63-4.76,8.35-7.43,11.14-16.07,11.5-38.46,17.24-67.16,17.24h-2.38c-13.21-.13-24.86-1.68-34.96-4.67-10.61-3.11-17.91-7.37-21.91-12.77-1.78-1.97-2.76-4.13-2.95-6.48v-.76c0-1.14.16-3.27.48-6.38.76-6.54,1.78-11.15,3.05-13.81,1.84-3.62,5.37-6.92,10.58-9.91,4.45-2.54,8.99-4.63,13.62-6.29,8.06-2.79,14.1-4.19,18.1-4.19s6,1.37,6,4.1c0,.83-.16,1.72-.48,2.67-.57,1.78-.99,2.89-1.24,3.33-.51,1.46-.83,2.48-.95,3.05-.63,2.54-1.46,4.06-2.48,4.57-.76.57-2.61.99-5.53,1.24-3.75.19-9.94,2.16-18.58,5.91-5.97,2.67-9.69,5.71-11.15,9.15,6.54,8.64,20.93,13.75,43.16,15.34,2.16.06,4.32.1,6.48.1,19.43,0,36.39-2.32,50.87-6.95,2.22-.63,4.6-1.56,7.14-2.76Zm-70.88,34.87c.51-.44,1.18-.67,2-.67,1.27,0,2.92.54,4.95,1.62,2.98,1.53,4.86,3.05,5.62,4.57.26.51.38,1.08.38,1.71,0,1.72-.76,3.87-2.29,6.48-.63,1.27-1.4,2.44-2.28,3.53-.7.89-1.14,1.33-1.33,1.33-1.46-1.53-3.87-2.76-7.24-3.72-1.27-.32-2.19-.7-2.76-1.14-.63-.51-.95-1.46-.95-2.86,0-.89.44-2.79,1.33-5.72.95-2.92,1.81-4.64,2.57-5.15Zm17.15,0c.51-.44,1.18-.67,2-.67,1.27,0,2.92.54,4.95,1.62,2.98,1.53,4.86,3.05,5.62,4.57.19.51.29,1.08.29,1.71,0,1.72-.73,3.87-2.19,6.48-.63,1.27-1.4,2.44-2.29,3.53-.7.89-1.14,1.33-1.33,1.33-1.46-1.53-3.88-2.76-7.24-3.72-1.27-.32-2.19-.7-2.76-1.14-.63-.51-.95-1.46-.95-2.86,0-.89.44-2.79,1.33-5.72.95-2.92,1.81-4.64,2.57-5.15Z"/>
      <path class="cls-5" d="m608.4,495.19c-1.59,1.46-3.56,2.19-5.91,2.19-.32,0-.63-.03-.95-.1-3.49,22.86-10.13,40.65-19.91,53.35-.7.95-2.03,1.43-4,1.43s-4.7-.51-8-1.52c-5.21-1.59-7.81-3.14-7.81-4.67,0-.38.16-.76.47-1.14,18.23-19.43,27.37-42.04,27.44-67.83l1.81-12.96c2.73-3.68,5.81-5.84,9.24-6.48,4.95,9.78,7.49,22.36,7.62,37.73Z"/>
      <path class="cls-5" d="m667.37,505.57c-.64,2.92-1.52,5.97-2.67,9.15h.1c-.13.25-.32.76-.57,1.52-2.61,10.29-5.86,18.96-9.77,26.01-3.9,7.05-6.05,10.58-6.43,10.58h.1c0,.06-.57.25-1.72.57-.13.06-.29.1-.47.1-1.21-.07-3.5-.73-6.86-2-5.4-1.4-8.45-2.67-9.15-3.81-.19-.26-.29-.54-.29-.86.06-1.33,1.33-3.34,3.81-6,7.37-8.13,12.99-16.61,16.86-25.44.76-1.65,2.32-5.33,4.67-11.05-9.78-.06-17.66-3.21-23.63-9.43-5.27-6.1-7.75-12.45-7.43-19.05.06-1.65.29-3.27.67-4.86.82-3.81,3.3-8.42,7.43-13.81,4.38-5.72,8.16-8.89,11.34-9.53,1.46-.25,2.76-.35,3.9-.29,1.59.13,2.89.48,3.91,1.05,5.21,3.11,9.65,9.85,13.34,20.2,2.54,7.05,4.03,13.4,4.48,19.05,1.97.06,4.1-.03,6.38-.29v17.91c-3.05.25-5.72.35-8,.29Zm-26.77-42.3c-.76-.57-1.37-.92-1.81-1.05h-.29c-.63-.06-1.02.41-1.14,1.43-.19,1.14-.29,2.25-.29,3.33-.44,10.42,4.19,17.15,13.91,20.2,1.27.19,2.25.26,2.95.19,0-.26-.03-.51-.09-.76v-.47c-2.92-11.11-7.34-18.74-13.24-22.86Z"/>
      <path class="cls-5" d="m704.43,488.33h.1c.06-.44.1-.99.1-1.62,0-.57-.03-1.24-.1-2v-.38l-.48-3.24c-.13-1.39-.25-2.35-.38-2.86-.76-3.36-1.14-5.08-1.14-5.14l-1.05-4.19c-.19-.51-.29-.89-.29-1.14,0-.06.03-.13.1-.19.25-1.02,1.68-3.49,4.29-7.43,2.73-4.19,4.51-6.35,5.33-6.48.25-.13.47-.19.67-.19.25,0,.47.06.66.19l1.43,1.91v-.1l.47,1.24c.38.89.57,1.36.57,1.43v-.1c.76,2.42,1.36,3.94,1.81,4.57.13.13.19.26.19.38,0,.25.06.44.19.57.25.38.41.76.47,1.14l2.57,4.19v.19l.38.95c.13.26.25.44.38.57.19.25.35.44.47.57.44.89,1.3,2.22,2.57,4l4,5.33,2.57,3.05h.1c.13.13.6.63,1.43,1.52l1.72,1.52c.13-.25.19-.57.19-.95s-.06-.82-.19-1.33v-.38l-1.91-6.86c0-.25-.06-.38-.19-.38-.13-.25-.35-.82-.67-1.71v-.57c-.13-.26-.26-.51-.38-.76-.06-.13-.1-.32-.1-.57l-1.24-2.86-.19-.57-2.57-5.91c-.06-.06-.1-.16-.1-.29,0-1.02,1.52-3.78,4.57-8.29,2.29-3.49,4.16-5.24,5.62-5.24.7,0,1.3.41,1.81,1.24,6.16,11.31,9.24,21.56,9.24,30.77,0,4.13-.63,8.03-1.91,11.72-1.02,1.65-2.89,4-5.62,7.05-2.99,3.43-4.99,5.21-6,5.34-.26.13-.6.32-1.05.57-.38.13-.73.19-1.05.19h-.38c-2.48-.13-5.15-1.46-8-4-1.14-.89-3.4-3.18-6.76-6.86l-1.05-1.14c-.07-.13-.16-.32-.29-.57-.13-.19-.23-.32-.29-.38-2.03,3.11-4.35,5.97-6.95,8.57-3.37,3.3-6.1,4.95-8.19,4.95-.38,0-.73-.06-1.05-.19-1.65-.57-3.21-1.33-4.67-2.29-1.59-.95-3.14-2.13-4.67-3.53-2.48-2.35-4.86-5.4-7.14-9.15-.13.38-.26.83-.38,1.33-.44,1.84-2.67,5.75-6.67,11.72v-18.67c-.13-3.94-.38-7.49-.76-10.67,0-.63-.06-1.24-.19-1.81-.63-3.17-1.3-6.32-2-9.43v-.47c0-.76,1.3-3.14,3.91-7.15,2.92-4.7,5.4-7.05,7.43-7.05h.19c.32,0,.6.19.86.57.51,1.27.79,1.91.86,1.91.13.25.41.89.86,1.91.32.89.54,1.59.67,2.09l.19.19v.57c.7,2.92,1.27,4.76,1.72,5.52l.86,2.48c.06,0,.22.38.47,1.14.13.26.26.63.38,1.14.13.38.29.83.48,1.33.13.13.25.51.38,1.14.32.64.6,1.14.86,1.53.13.13.25.32.38.57.06.25.16.44.29.57l1.43,2.67,1.52,2.67c1.21,1.78,1.84,2.67,1.91,2.67.32.51.54.89.67,1.14.13.26.22.38.29.38l.57.95c.13,0,.19.06.19.19l.86,1.14c.13.13.29.25.48.38.13.13.32.32.57.57.06.25.16.44.29.57l2.38,2.09c.06.07.1.13.1.19Z"/>
    </g>
    <text class="cls-6" transform="translate(8.04 607.75)"><tspan class="cls-10" x="0" y="0">#</tspan><tspan class="cls-9" x="42.08" y="0">positive_syrian</tspan></text>
    <path class="cls-8" d="m62.95,490.47l-.61.55h-23.49v23.62l-.55.55h-6.42l-.55-.55v-23.62H7.85l-.61-.55v-6.42l.61-.61h23.49v-23.49l.55-.55h6.42l.55.55v23.49h23.49l.61.61v6.42Z"/>
    <g>
      <g>
        <path class="cls-7" d="m727.72,294.47c-8,.51-18.39-5.73-26.2-3.03-7.79,2.7-11.64,14.28-18.83,20.69-36.5,32.55-93.84,26.29-122.5-13.96-4.39-6.17-7.75-7.41-15.15-5.47-42.45,11.1-80.63-28.56-68.79-71.23,1.68-6.05,1.2-8.62-5.1-11.54-41.54-19.31-59.69-66.88-41.8-108.09,18.26-42.09,65.16-61.58,107.93-44.08,7.8,3.19,10.25,1.47,13.97-5.21,23.14-41.55,70.83-61.36,116.1-48.81,45.56,12.63,76.43,53.62,75.18,101.05-.23,8.58,1.45,11.65,10.3,13.85,43.8,10.88,71.98,53.45,66.11,98.21-5.83,44.49-44.52,78.04-91.23,77.64Z"/>
        <path class="cls-4" d="m413.18,75.34c-15.65,43.14-15.24,86.1,1.47,128.85-31.46-38.71-28.64-100.7-1.47-128.85Z"/>
        <path class="cls-4" d="m834.73,154.04c21.92,25.04,23.89,88.05-17.37,130.41,21.47-40.72,29.93-83.16,17.37-130.41Z"/>
        <path class="cls-1" d="m450.86,397.72c-7.99.27-14.97-6.38-15.19-14.47-.22-8.21,6.13-14.89,14.37-15.12,8.38-.23,14.82,5.87,15.06,14.29.24,8.25-6.07,15.03-14.24,15.3Z"/>
        <path class="cls-3" d="m849.98,136.37c22.62,21.26,28.44,64.57,14.13,94.07,1.37-15.6,1.22-31.16-.39-46.7-1.61-15.53-7.34-29.91-13.74-47.37Z"/>
        <path class="cls-2" d="m376.42,146.48c-8.45-37.54,2.69-76.36,27.63-91.8-18.89,29.44-26.33,59.82-27.63,91.8Z"/>
        <path class="cls-8" d="m729.93,103.72c1.68,6.53-5.19,15-.26,21.52,4.88,6.46,14.49,3.79,21.84,6.05,41.1,12.66,64.43,55.22,52,95.72-12.8,41.71-56.57,64.45-98.05,50.3-8.52-2.91-12.29-1.26-16.71,6.48-13.52,23.7-34.41,36.33-61.92,36.01-27.46-.31-48.1-13.18-61.17-37.23-4.15-7.64-7.96-8.84-15.86-5.2-18.11,8.34-37.57,4.15-50.68-9.7-12.85-13.57-16.2-32.93-7.58-50.21,4.36-8.73,3.76-12.71-6.46-16.03-27.2-8.84-44.21-27.75-48.46-56.31-4.24-28.45,5.83-51.92,29.46-68.27,24.02-16.63,49.53-17.02,75.19-3.05,10.9,5.93,11.38,5.8,16.73-6.3,17.79-40.25,59.1-61.51,101.84-52.4,40.37,8.6,70.21,45.82,70.11,88.62Z"/>
        <path class="cls-5" d="m512.14,332.59c.23,10.34-8.06,19.11-18.37,19.43-10.77.34-19.71-8.36-19.73-19.2-.01-10.18,8.77-18.96,18.94-18.95,10.36,0,18.93,8.38,19.16,18.72Z"/>
      </g>
      <path class="cls-5" d="m602.96,156.63l-.99.88h-37.7v37.92l-.88.88h-10.3l-.88-.88v-37.92h-37.7l-.99-.88v-10.3l.99-.99h37.7v-37.7l.88-.88h10.3l.88.88v37.7h37.7l.99.99v10.3Z"/>
      <path class="cls-5" d="m663.27,236.66l-.72.64h-27.52v27.68l-.64.64h-7.52l-.64-.64v-27.68h-27.52l-.72-.64v-7.52l.72-.72h27.52v-27.52l.64-.64h7.52l.64.64v27.52h27.52l.72.72v7.52Z"/>
      <path class="cls-5" d="m711.3,160.85l-.54.48h-20.52v20.64l-.48.48h-5.61l-.48-.48v-20.64h-20.52l-.54-.48v-5.61l.54-.54h20.52v-20.52l.48-.48h5.61l.48.48v20.52h20.52l.54.54v5.61Z"/>
    </g>
  </g>
</svg>